REM DIRINDEX 1\2\4,1\2\5,1\3\6,1\3\7
REM DIRNAME cjc072,folder01,folder02,folder03,folder04,folder05,folder06
TITLE ""
FILE "grammar_ch04.mp3" MP3
  TRACK 01 AUDIO
    TITLE "5:cjc072_231"
    INDEX 01 00:00:00
  TRACK 02 AUDIO
    TITLE "5:cjc072_232"
    INDEX 01 00:01:66
  TRACK 03 AUDIO
    TITLE "4:cjc072_233"
    INDEX 01 00:03:35
  TRACK 04 AUDIO
    TITLE "0:"
    INDEX 01 00:10:02
  TRACK 05 AUDIO
    TITLE "7:cjc072_234"
    INDEX 01 00:11:40
  TRACK 06 AUDIO
    TITLE "7:cjc072_235"
    INDEX 01 00:13:45
  TRACK 07 AUDIO
    TITLE "6:cjc072_236"
    INDEX 01 00:15:19
  TRACK 08 AUDIO
    TITLE "0:"
    INDEX 01 00:21:47
  TRACK 09 AUDIO
    TITLE "5:cjc072_237"
    INDEX 01 00:23:10
  TRACK 10 AUDIO
    TITLE "4:cjc072_238"
    INDEX 01 00:24:49
  TRACK 11 AUDIO
    TITLE "0:"
    INDEX 01 00:30:48
  TRACK 12 AUDIO
    TITLE "7:cjc072_239"
    INDEX 01 00:32:11
  TRACK 13 AUDIO
    TITLE "6:cjc072_240"
    INDEX 01 00:33:50
  TRACK 14 AUDIO
    TITLE "0:"
    INDEX 01 00:39:37
  TRACK 15 AUDIO
    TITLE "5:cjc072_241"
    INDEX 01 00:41:02
  TRACK 16 AUDIO
    TITLE "4:cjc072_242"
    INDEX 01 00:42:43
  TRACK 17 AUDIO
    TITLE "0:"
    INDEX 01 00:48:59
  TRACK 18 AUDIO
    TITLE "7:cjc072_243"
    INDEX 01 00:50:23
  TRACK 19 AUDIO
    TITLE "6:cjc072_244"
    INDEX 01 00:51:58
  TRACK 20 AUDIO
    TITLE "0:"
    INDEX 01 00:57:72
  TRACK 21 AUDIO
    TITLE "5:cjc072_245"
    INDEX 01 00:59:41
  TRACK 22 AUDIO
    TITLE "4:cjc072_246"
    INDEX 01 01:01:09
  TRACK 23 AUDIO
    TITLE "0:"
    INDEX 01 01:08:13
  TRACK 24 AUDIO
    TITLE "7:cjc072_247"
    INDEX 01 01:09:52
  TRACK 25 AUDIO
    TITLE "6:cjc072_248"
    INDEX 01 01:11:17
  TRACK 26 AUDIO
    TITLE "0:"
    INDEX 01 01:18:15
  TRACK 27 AUDIO
    TITLE "5:cjc072_249"
    INDEX 01 01:19:54
  TRACK 28 AUDIO
    TITLE "4:cjc072_250"
    INDEX 01 01:21:25
  TRACK 29 AUDIO
    TITLE "0:"
    INDEX 01 01:29:03
  TRACK 30 AUDIO
    TITLE "7:cjc072_251"
    INDEX 01 01:30:46
  TRACK 31 AUDIO
    TITLE "6:cjc072_252"
    INDEX 01 01:32:17
  TRACK 32 AUDIO
    TITLE "0:"
    INDEX 01 01:39:04
  TRACK 33 AUDIO
    TITLE "5:cjc072_253"
    INDEX 01 01:40:42
  TRACK 34 AUDIO
    TITLE "4:cjc072_254"
    INDEX 01 01:42:10
  TRACK 35 AUDIO
    TITLE "0:"
    INDEX 01 01:47:23
  TRACK 36 AUDIO
    TITLE "7:cjc072_255"
    INDEX 01 01:48:61
  TRACK 37 AUDIO
    TITLE "6:cjc072_256"
    INDEX 01 01:50:37
  TRACK 38 AUDIO
    TITLE "0:"
    INDEX 01 01:55:38
  TRACK 39 AUDIO
    TITLE "5:cjc072_257"
    INDEX 01 01:57:04
  TRACK 40 AUDIO
    TITLE "4:cjc072_258"
    INDEX 01 01:58:46
  TRACK 41 AUDIO
    TITLE "0:"
    INDEX 01 02:04:70
  TRACK 42 AUDIO
    TITLE "7:cjc072_259"
    INDEX 01 02:06:36
  TRACK 43 AUDIO
    TITLE "6:cjc072_260"
    INDEX 01 02:08:03
  TRACK 44 AUDIO
    TITLE "0:"
    INDEX 01 02:13:56
  TRACK 45 AUDIO
    TITLE "5:cjc072_261"
    INDEX 01 02:15:21
  TRACK 46 AUDIO
    TITLE "4:cjc072_262"
    INDEX 01 02:16:64
  TRACK 47 AUDIO
    TITLE "0:"
    INDEX 01 02:23:05
  TRACK 48 AUDIO
    TITLE "7:cjc072_263"
    INDEX 01 02:24:47
  TRACK 49 AUDIO
    TITLE "6:cjc072_264"
    INDEX 01 02:26:11
  TRACK 50 AUDIO
    TITLE "0:"
    INDEX 01 02:32:06
  TRACK 51 AUDIO
    TITLE "5:cjc072_265"
    INDEX 01 02:33:46
  TRACK 52 AUDIO
    TITLE "4:cjc072_266"
    INDEX 01 02:35:16
  TRACK 53 AUDIO
    TITLE "0:"
    INDEX 01 02:42:71
  TRACK 54 AUDIO
    TITLE "7:cjc072_267"
    INDEX 01 02:44:33
  TRACK 55 AUDIO
    TITLE "6:cjc072_268"
    INDEX 01 02:46:02
  TRACK 56 AUDIO
    TITLE "0:"
    INDEX 01 02:53:45
  TRACK 57 AUDIO
    TITLE "5:cjc072_269"
    INDEX 01 02:55:09
  TRACK 58 AUDIO
    TITLE "4:cjc072_270"
    INDEX 01 02:56:49
  TRACK 59 AUDIO
    TITLE "0:"
    INDEX 01 03:04:08
  TRACK 60 AUDIO
    TITLE "7:cjc072_271"
    INDEX 01 03:05:45
  TRACK 61 AUDIO
    TITLE "6:cjc072_272"
    INDEX 01 03:07:06
  TRACK 62 AUDIO
    TITLE "0:"
    INDEX 01 03:14:00
  TRACK 63 AUDIO
    TITLE "5:cjc072_273"
    INDEX 01 03:15:35
  TRACK 64 AUDIO
    TITLE "4:cjc072_274"
    INDEX 01 03:17:05
  TRACK 65 AUDIO
    TITLE "0:"
    INDEX 01 03:26:54
  TRACK 66 AUDIO
    TITLE "7:cjc072_275"
    INDEX 01 03:28:16
  TRACK 67 AUDIO
    TITLE "6:cjc072_276"
    INDEX 01 03:29:65
  TRACK 68 AUDIO
    TITLE "0:"
    INDEX 01 03:38:54
  TRACK 69 AUDIO
    TITLE "5:cjc072_277"
    INDEX 01 03:40:19
  TRACK 70 AUDIO
    TITLE "4:cjc072_278"
    INDEX 01 03:41:58
  TRACK 71 AUDIO
    TITLE "0:"
    INDEX 01 03:49:01
  TRACK 72 AUDIO
    TITLE "7:cjc072_279"
    INDEX 01 03:50:43
  TRACK 73 AUDIO
    TITLE "6:cjc072_280"
    INDEX 01 03:52:15
  TRACK 74 AUDIO
    TITLE "0:"
    INDEX 01 03:58:66
  TRACK 75 AUDIO
    TITLE "5:cjc072_281"
    INDEX 01 04:00:40
  TRACK 76 AUDIO
    TITLE "4:cjc072_282"
    INDEX 01 04:02:21
  TRACK 77 AUDIO
    TITLE "0:"
    INDEX 01 04:11:67
  TRACK 78 AUDIO
    TITLE "7:cjc072_283"
    INDEX 01 04:13:27
  TRACK 79 AUDIO
    TITLE "6:cjc072_284"
    INDEX 01 04:15:10
  TRACK 80 AUDIO
    TITLE "0:"
    INDEX 01 04:24:24
  TRACK 81 AUDIO
    TITLE "5:cjc072_285"
    INDEX 01 04:25:63
  TRACK 82 AUDIO
    TITLE "4:cjc072_286"
    INDEX 01 04:27:44
  TRACK 83 AUDIO
    TITLE "0:"
    INDEX 01 04:37:39
  TRACK 84 AUDIO
    TITLE "7:cjc072_287"
    INDEX 01 04:39:04
  TRACK 85 AUDIO
    TITLE "6:cjc072_288"
    INDEX 01 04:40:57
  TRACK 86 AUDIO
    TITLE "0:"
    INDEX 01 04:50:32
  TRACK 87 AUDIO
    TITLE "5:cjc072_289"
    INDEX 01 04:51:68
  TRACK 88 AUDIO
    TITLE "4:cjc072_290"
    INDEX 01 04:53:52
  TRACK 89 AUDIO
    TITLE "0:"
    INDEX 01 04:58:53
  TRACK 90 AUDIO
    TITLE "7:cjc072_291"
    INDEX 01 05:00:16
  TRACK 91 AUDIO
    TITLE "6:cjc072_292"
    INDEX 01 05:01:69
  TRACK 92 AUDIO
    TITLE "0:"
    INDEX 01 05:06:50
  TRACK 93 AUDIO
    TITLE "5:cjc072_293"
    INDEX 01 05:08:14
  TRACK 94 AUDIO
    TITLE "4:cjc072_294"
    INDEX 01 05:09:72
  TRACK 95 AUDIO
    TITLE "0:"
    INDEX 01 05:17:09
  TRACK 96 AUDIO
    TITLE "7:cjc072_295"
    INDEX 01 05:18:44
  TRACK 97 AUDIO
    TITLE "6:cjc072_296"
    INDEX 01 05:20:31
  TRACK 98 AUDIO
    TITLE "0:"
    INDEX 01 05:27:09
  TRACK 99 AUDIO
    TITLE "5:cjc072_297"
    INDEX 01 05:28:46
  TRACK 100 AUDIO
    TITLE "4:cjc072_298"
    INDEX 01 05:30:39
  TRACK 101 AUDIO
    TITLE "0:"
    INDEX 01 05:38:09
  TRACK 102 AUDIO
    TITLE "7:cjc072_299"
    INDEX 01 05:39:48
  TRACK 103 AUDIO
    TITLE "6:cjc072_300"
    INDEX 01 05:41:29
  TRACK 104 AUDIO
    TITLE "0:"
    INDEX 01 05:48:06
  TRACK 105 AUDIO
    TITLE "5:cjc072_301"
    INDEX 01 05:49:46
  TRACK 106 AUDIO
    TITLE "4:cjc072_302"
    INDEX 01 05:51:27
  TRACK 107 AUDIO
    TITLE "0:"
    INDEX 01 05:55:43
  TRACK 108 AUDIO
    TITLE "7:cjc072_303"
    INDEX 01 05:57:03
  TRACK 109 AUDIO
    TITLE "6:cjc072_304"
    INDEX 01 05:58:59
  TRACK 110 AUDIO
    TITLE "0:"
    INDEX 01 06:02:57
  TRACK 111 AUDIO
    TITLE "5:cjc072_305"
    INDEX 01 06:04:18
  TRACK 112 AUDIO
    TITLE "4:cjc072_306"
    INDEX 01 06:06:07
  TRACK 113 AUDIO
    TITLE "0:"
    INDEX 01 06:13:37
  TRACK 114 AUDIO
    TITLE "7:cjc072_307"
    INDEX 01 06:15:01
  TRACK 115 AUDIO
    TITLE "6:cjc072_308"
    INDEX 01 06:16:53
  TRACK 116 AUDIO
    TITLE "0:"
    INDEX 01 06:23:12
  TRACK 117 AUDIO
    TITLE "5:cjc072_309"
    INDEX 01 06:24:50
  TRACK 118 AUDIO
    TITLE "4:cjc072_310"
    INDEX 01 06:26:22
  TRACK 119 AUDIO
    TITLE "0:"
    INDEX 01 06:33:26
  TRACK 120 AUDIO
    TITLE "7:cjc072_311"
    INDEX 01 06:34:65
  TRACK 121 AUDIO
    TITLE "6:cjc072_312"
    INDEX 01 06:36:22
  TRACK 122 AUDIO
    TITLE "0:"
    INDEX 01 06:43:15
